<?xml version="1.0" encoding="UTF-8"?>
<svg version="1.1" xmlns="http://www.w3.org/2000/svg" width="452" height="452">
<path d="M0 0 C149.16 0 298.32 0 452 0 C452 149.16 452 298.32 452 452 C302.84 452 153.68 452 0 452 C0 302.84 0 153.68 0 0 Z " fill="#030303" transform="translate(0,0)"/>
<path d="M0 0 C1.27579508 -0.00807831 1.27579508 -0.00807831 2.57736379 -0.01631981 C5.43236296 -0.0306471 8.28690159 -0.02348382 11.141922 -0.01637268 C13.18700026 -0.02207392 15.23207535 -0.02903722 17.27714539 -0.03717041 C22.83729854 -0.05514859 28.39729427 -0.05392412 33.95746779 -0.04822803 C38.59942494 -0.04514148 43.24135161 -0.051223 47.88330442 -0.05726677 C58.83786277 -0.07132703 69.79234318 -0.06973953 80.74690247 -0.05836487 C92.04288493 -0.04689473 103.33862967 -0.06093742 114.63458079 -0.08776134 C124.33410189 -0.10993083 134.03354845 -0.11655252 143.73309308 -0.11068493 C149.5253994 -0.10731564 155.31755349 -0.10972817 161.10983849 -0.12693596 C166.56081349 -0.14242169 172.01143732 -0.13843118 177.46239853 -0.11963081 C179.4598045 -0.11594881 181.45723656 -0.11904202 183.45461845 -0.1295166 C186.18857227 -0.14275555 188.92136858 -0.13115324 191.65527344 -0.11352539 C192.43953758 -0.1231304 193.22380172 -0.1327354 194.03183144 -0.14263147 C202.69683329 -0.02824967 209.63446621 3.64179929 215.91853333 9.45018005 C220.1102919 14.15405393 222.77145331 20.17124765 222.76814365 26.48937511 C222.7701347 27.3278798 222.77212575 28.16638449 222.77417713 29.03029841 C222.77126429 29.95149653 222.76835145 30.87269465 222.76535034 31.82180786 C222.76663198 33.28960629 222.76663198 33.28960629 222.76793951 34.78705722 C222.7695925 38.08062629 222.76407586 41.37414494 222.75862122 44.66770935 C222.75833928 47.0228017 222.7584972 49.37789415 222.75906372 51.73298645 C222.75935144 58.13963693 222.75345877 64.54626881 222.74648976 70.95291495 C222.74040819 76.96599813 222.73986743 82.97908353 222.73883789 88.99216924 C222.73664849 100.90338795 222.72999144 112.81459982 222.72053528 124.72581482 C222.71135826 136.29742905 222.70427884 147.86904143 222.70002747 159.44065857 C222.69963338 160.51031423 222.69963338 160.51031423 222.69923133 161.60157909 C222.69792631 165.17896021 222.6966626 168.75634134 222.69541943 172.33372247 C222.68505031 202.01837954 222.66736077 231.70302947 222.64509583 261.38768005 C218.71323149 263.47918515 214.7736349 265.55570958 210.83259583 267.62986755 C209.73238098 268.21534363 208.63216614 268.8008197 207.49861145 269.40403748 C198.53348433 274.10808464 189.47657893 277.71564125 179.81648254 280.7016449 C178.36200137 281.16117853 176.91536287 281.64626756 175.47761536 282.15574646 C169.57651018 284.24503897 163.68356519 285.45873522 157.52009583 286.51268005 C156.57005676 286.68154724 155.6200177 286.85041443 154.64118958 287.0243988 C151.97772872 287.4935521 149.31470954 287.95486204 146.64509583 288.38768005 C145.03840027 288.65463684 145.03840027 288.65463684 143.39924622 288.92698669 C139.04554043 289.46125494 134.78084351 289.58584353 130.39900208 289.6259613 C129.51923706 289.63580048 128.63947205 289.64563965 127.73304749 289.65577698 C98.03764886 289.91939199 70.983742 287.14741605 43.07087708 276.2118988 C37.85194579 274.29750266 33.1852161 273.65423499 27.64509583 273.70018005 C26.74645813 273.70453064 25.84782043 273.70888123 24.92195129 273.71336365 C15.82056777 274.01498761 8.12232699 276.80405417 -0.14445496 280.42088318 C-2.9804197 281.66126537 -5.84410183 282.8245723 -8.71672058 283.97703552 C-10.5362509 284.70985762 -12.34639609 285.46586368 -14.15568542 286.22361755 C-17.24447892 287.3475009 -20.10279196 287.96456107 -23.35490417 288.38768005 C-22.2436395 285.4243076 -20.99959832 282.73628599 -19.47990417 279.95018005 C-13.77780901 268.52455328 -10.94393295 255.39458164 -14.48381042 242.90330505 C-16.22900414 238.0003385 -19.03540314 235.01246531 -22.72990417 231.45018005 C-40.48059106 213.29023544 -52.81101746 191.57478077 -60.35490417 167.38768005 C-60.65783386 166.50467224 -60.96076355 165.62166443 -61.27287292 164.7118988 C-65.86316013 150.84783339 -66.90899241 136.56604804 -66.79240417 122.07518005 C-66.78936279 121.26785431 -66.78632141 120.46052856 -66.78318787 119.6287384 C-66.71392571 107.16724477 -65.9460803 95.39106327 -62.35490417 83.38768005 C-62.03344421 82.2603949 -62.03344421 82.2603949 -61.70549011 81.1103363 C-52.96068182 50.91719908 -35.41383037 24.61597394 -12.35490417 3.38768005 C-11.81445308 2.85209441 -11.27400198 2.31650877 -10.71717358 1.76469326 C-7.25876314 -0.25128207 -3.89255217 -0.02941148 0 0 Z " fill="#FDFDFD" transform="translate(175.3549041748047,53.61231994628906)"/>
<path d="M0 0 C149.16 0 298.32 0 452 0 C452 149.16 452 298.32 452 452 C302.84 452 153.68 452 0 452 C0 302.84 0 153.68 0 0 Z M53 46 C52.13375 46.5775 51.2675 47.155 50.375 47.75 C42.78669732 54.93891833 36.43886168 65.76420317 35.87119883 76.41711748 C35.86941026 77.3254139 35.86762169 78.23371032 35.86577892 79.16953087 C35.86132108 80.22084674 35.85686324 81.27216262 35.85227031 82.35533655 C35.85245467 83.50920189 35.85263903 84.66306723 35.85282898 85.85189819 C35.84915229 87.07867078 35.8454756 88.30544338 35.8416875 89.56939089 C35.83256723 92.97661368 35.82795239 96.38378832 35.82529819 99.79101872 C35.82139184 103.46542307 35.81181353 107.13981352 35.80308533 110.81420898 C35.78332705 119.69069734 35.7732541 128.56718682 35.76435754 137.44369167 C35.75997234 141.62690711 35.75460601 145.81012128 35.74936867 149.99333572 C35.73235467 163.90584996 35.71786253 177.81836342 35.71061993 191.73088646 C35.70871011 195.34093604 35.70678977 198.9509856 35.70483398 202.56103516 C35.70435024 203.45826647 35.7038665 204.35549777 35.7033681 205.27991791 C35.69507546 219.80053018 35.66975227 234.32105986 35.63725331 248.84163611 C35.60413671 263.76025571 35.58616689 278.67883342 35.58297569 293.59748995 C35.58081451 301.9693359 35.57212385 310.34106152 35.54651451 318.71287155 C35.52474431 325.84605788 35.5167879 332.97909467 35.52648129 340.11231045 C35.53100822 343.74751792 35.5292347 347.38241728 35.50971985 351.01758194 C35.4886799 354.97126864 35.49913092 358.92453734 35.51225281 362.87826538 C35.50128356 364.00982351 35.49031432 365.14138163 35.47901267 366.3072294 C35.57587995 378.46961912 38.45880352 389.36632867 46 399 C46.5775 399.86625 47.155 400.7325 47.75 401.625 C54.94478866 409.21949914 65.77035112 415.55988325 76.42994153 416.12995183 C77.34431348 416.13228248 78.25868542 416.13461312 79.20076561 416.13701439 C80.78818961 416.1446262 80.78818961 416.1446262 82.40768278 416.15239179 C84.15015364 416.15313843 84.15015364 416.15313843 85.92782593 416.15390015 C87.16276562 416.1582824 88.39770532 416.16266465 89.67006743 416.1671797 C93.10009129 416.17823935 96.53006959 416.18479063 99.9601047 416.18936086 C103.65905092 416.19532215 107.35798038 416.2069309 111.05691528 416.21765137 C119.9927256 416.2421667 128.92854146 416.25680301 137.86437505 416.26971143 C140.38964066 416.27342457 142.91490571 416.27739772 145.44017076 416.2814641 C161.13117137 416.30670625 176.82217288 416.32875333 192.51318932 416.34119225 C196.14730202 416.34412182 199.7814147 416.3470835 203.41552734 416.35009766 C204.31873988 416.35084371 205.22195242 416.35158976 206.15253504 416.35235842 C220.7701653 416.36500052 235.38767361 416.39820829 250.00524692 416.43989949 C265.02330676 416.48238055 280.04130429 416.50589456 295.05942404 416.51111281 C303.4871925 416.51452037 311.91477053 416.52619766 320.34247971 416.55921555 C327.52326276 416.58730244 334.70381634 416.5981778 341.88465004 416.58702008 C345.54422723 416.58185499 349.20332455 416.58457825 352.86283112 416.60948563 C372.74986108 416.73746763 387.65152021 416.50653798 402.75 402.4375 C412.82953463 391.51800415 416.46469193 380.17348423 416.38768005 365.45744324 C416.39306559 364.21682029 416.39845113 362.97619733 416.40399987 361.69797975 C416.4157865 358.27523286 416.41422939 354.852976 416.40683305 351.43024909 C416.40208822 347.730734 416.4146229 344.03127029 416.42485046 340.33177185 C416.44201883 333.09186671 416.44288246 325.85204843 416.43763756 318.61212822 C416.43359052 312.72475554 416.43504575 306.83740847 416.44038582 300.950037 C416.44113424 300.11101127 416.44188266 299.27198554 416.44265376 298.40753478 C416.4441853 296.70284936 416.44572365 294.99816394 416.44726873 293.29347853 C416.46098699 277.31809659 416.45556111 261.34276367 416.44408352 245.36738286 C416.43415458 230.76812977 416.44708714 216.16900348 416.47101771 201.56976994 C416.49543031 186.56284921 416.5050111 171.55598748 416.49836498 156.54904729 C416.49487721 148.13040531 416.49707543 139.71186079 416.51461601 131.29323387 C416.52936516 124.12569324 416.52993825 116.95831869 416.5125451 109.79078122 C416.50405444 106.13757235 416.50183763 102.4846598 416.51719666 98.83146667 C416.53367799 94.86199673 416.51884664 90.89297999 416.50120544 86.92350769 C416.51081045 85.78175258 416.52041546 84.63999748 416.53031152 83.46364373 C416.42346599 71.73542819 413.02955862 62.32768355 406 53 C405.4225 52.13375 404.845 51.2675 404.25 50.375 C394.49133914 40.07419132 382.3627894 35.879879 368.48624206 35.43013942 C362.60690516 35.33566939 356.72965739 35.33082405 350.84992099 35.3610357 C347.15388849 35.37451709 343.45795518 35.35893453 339.76193237 35.34721375 C332.53935369 35.32891345 325.31704702 35.33729774 318.09447704 35.35530197 C312.22151555 35.36937236 306.34862751 35.37321127 300.47565079 35.3698597 C299.6373025 35.36938225 298.79895422 35.36890481 297.93520144 35.3684129 C296.23172368 35.36738649 294.52824593 35.36633113 292.8247682 35.36524714 C277.78986291 35.35669575 262.75508832 35.37330537 247.72021484 35.40307617 C233.15310174 35.43192008 218.58617681 35.4389902 204.01904297 35.42358398 C188.12789825 35.40680034 172.23684269 35.40280886 156.34569561 35.42029434 C154.64936965 35.4221386 152.95304367 35.42397333 151.25671768 35.42579842 C150.42224653 35.42671051 149.58777539 35.4276226 148.72801723 35.42856232 C142.8654653 35.43415348 137.00295711 35.43087393 131.14040756 35.42425346 C123.99126949 35.41649999 116.84231621 35.42334536 109.69321524 35.4484285 C106.05010982 35.46087588 102.40729141 35.46712842 98.76417542 35.45588684 C94.8058957 35.44390385 90.84810538 35.46319696 86.88986206 35.4853363 C85.75151755 35.47709554 84.61317304 35.46885477 83.44033325 35.46036428 C71.72514385 35.58084876 62.31767913 38.97798094 53 46 Z " fill="#FEFEFE" transform="translate(0,0)"/>
<path d="M0 0 C1.92131241 0.00022659 1.92131241 0.00022659 3.88143921 0.00045776 C5.2642228 0.01066869 6.64700478 0.02110064 8.02978516 0.03173828 C9.45610353 0.03547243 10.88242448 0.0383175 12.30874634 0.04031372 C16.04717192 0.0479186 19.78543999 0.0675397 23.52380371 0.08972168 C27.34478627 0.11024821 31.1657945 0.11932994 34.98681641 0.12939453 C42.47256499 0.15078887 49.95818418 0.18488638 57.44384766 0.22705078 C55.85713717 3.57217291 54.08837591 5.80630908 51.50634766 8.47705078 C26.94887808 35.36018762 9.5683117 74.44610307 9.20556641 110.98486328 C9.19572723 111.80209366 9.18588806 112.61932404 9.17575073 113.46131897 C8.86247163 139.09920361 8.86247163 139.09920361 13.44384766 164.22705078 C13.69054199 165.0973291 13.93723633 165.96760742 14.19140625 166.86425781 C22.97502587 196.79542572 37.82048145 222.28984451 59.32666016 244.80126953 C62.48131802 248.41573915 62.67335951 251.35182784 62.59619141 256.05908203 C62.34780808 259.59376779 61.51536981 262.87084634 60.44384766 266.22705078 C60.07646484 267.42007813 60.07646484 267.42007813 59.70166016 268.63720703 C56.02727059 279.15636655 49.59216301 285.24347625 39.66650391 290.03564453 C37.30334884 291.0271845 37.30334884 291.0271845 36.44384766 293.22705078 C35.97796484 299.10870814 35.97796484 299.10870814 38.44384766 304.22705078 C55.06942033 310.926574 76.20703628 305.98777798 91.94384766 299.35205078 C95.76642502 297.71159553 99.57942206 296.04953632 103.38525391 294.37060547 C105.06347084 293.63753818 106.7533816 292.93141164 108.44384766 292.22705078 C109.35134766 291.83517578 110.25884766 291.44330078 111.19384766 291.03955078 C120.34331985 288.75218273 127.88937509 290.57037192 136.44384766 294.03955078 C146.08602292 297.8265699 155.63994097 300.78808036 165.81884766 302.78955078 C166.96095703 303.01771484 168.10306641 303.24587891 169.27978516 303.48095703 C169.92447754 303.59616699 170.56916992 303.71137695 171.23339844 303.83007812 C172.82439967 304.11580466 174.4109935 304.42647948 175.99414062 304.75292969 C186.18478395 306.6373513 196.34924162 306.52983204 206.68115234 306.48779297 C209.80537431 306.47709691 212.92901839 306.4877244 216.05322266 306.50048828 C230.10725478 306.51088833 243.58218145 305.60572994 257.31884766 302.41455078 C258.06730957 302.2427832 258.81577148 302.07101562 259.58691406 301.89404297 C277.60924143 297.66373392 295.42890272 291.87570427 311.76416016 283.03955078 C313.44384766 282.22705078 313.44384766 282.22705078 315.44384766 282.22705078 C315.54334676 287.75881816 315.61561189 293.29005504 315.66357422 298.82250977 C315.68358586 300.70118291 315.71080402 302.57979458 315.74560547 304.45825195 C315.79458736 307.17170451 315.81692094 309.88432774 315.83447266 312.59814453 C315.86544037 313.84089394 315.86544037 313.84089394 315.89703369 315.10874939 C315.90038966 323.99674735 312.41699248 331.01867697 306.45166016 337.50048828 C303.16016473 340.3309182 299.4878247 341.76924236 295.44384766 343.22705078 C294.78384766 343.55705078 294.12384766 343.88705078 293.44384766 344.22705078 C291.81074323 344.32435875 290.17367833 344.35804107 288.53768063 344.36127186 C286.97250491 344.36795862 286.97250491 344.36795862 285.37570947 344.37478048 C283.64272988 344.37450393 283.64272988 344.37450393 281.8747406 344.3742218 C280.0441039 344.37973683 280.0441039 344.37973683 278.17648464 344.38536328 C274.77789319 344.39450267 271.37935008 344.39910257 267.98075092 344.40175259 C264.31935871 344.40565119 260.65798055 344.41522999 256.99659729 344.42396545 C248.14748 344.443745 239.29836154 344.45379907 230.44922766 344.46269324 C226.28279695 344.4670747 222.11636752 344.47244197 217.94993782 344.47768211 C204.10011655 344.49469775 190.25029608 344.50919122 176.40046597 344.51643085 C172.8048191 344.51834079 169.20917223 344.52026111 165.61352539 344.5222168 C164.27298644 344.52294241 164.27298644 344.52294241 162.90536589 344.52368268 C148.43298078 344.53198027 133.9606784 344.55731109 119.4883294 344.58979747 C104.63194793 344.62287406 89.77560848 344.64088026 74.91918999 344.6440751 C66.57709602 344.64623991 58.23512259 344.65498398 49.8930645 344.68053627 C42.78713496 344.70225167 35.68135524 344.71028968 28.57539629 344.70056949 C24.95094837 344.69602684 21.32680949 344.69790841 17.70240402 344.71733093 C13.76875484 344.73822806 9.83553052 344.72797028 5.90184021 344.71479797 C4.1922832 344.73125184 4.1922832 344.73125184 2.44818968 344.74803811 C-7.38964668 344.66852691 -14.57652002 341.90999926 -21.82958984 335.23486328 C-24.66001976 331.94336786 -26.09834392 328.27102783 -27.55615234 324.22705078 C-27.88615234 323.56705078 -28.21615234 322.90705078 -28.55615234 322.22705078 C-28.65346032 320.59394635 -28.68714263 318.95688145 -28.69037342 317.32088375 C-28.69706019 315.75570803 -28.69706019 315.75570803 -28.70388204 314.1589126 C-28.70369768 313.00359287 -28.70351331 311.84827314 -28.70332336 310.65794373 C-28.70700005 309.43751926 -28.71067674 308.21709479 -28.71446484 306.95968777 C-28.72360424 303.56109632 -28.72820414 300.16255321 -28.73085415 296.76395404 C-28.73475275 293.10256184 -28.74433155 289.44118367 -28.75306702 285.77980042 C-28.77284656 276.93068312 -28.78290064 268.08156466 -28.79179481 259.23243079 C-28.79617626 255.06600008 -28.80154353 250.89957065 -28.80678368 246.73314095 C-28.82379931 232.88331968 -28.83829278 219.03349921 -28.84553242 205.18366909 C-28.84744235 201.58802222 -28.84936267 197.99237536 -28.85131836 194.39672852 C-28.8518021 193.50303588 -28.85228584 192.60934325 -28.85278424 191.68856902 C-28.86108183 177.21618391 -28.88641266 162.74388152 -28.91889904 148.27153253 C-28.95197562 133.41515105 -28.96998182 118.5588116 -28.97317666 103.70239311 C-28.97534147 95.36029914 -28.98408555 87.01832572 -29.00963783 78.67626762 C-29.03135324 71.57033809 -29.03939124 64.46455837 -29.02967105 57.35859942 C-29.02512841 53.7341515 -29.02700997 50.11001262 -29.0464325 46.48560715 C-29.06732962 42.55195796 -29.05707184 38.61873364 -29.04389954 34.68504333 C-29.05486878 33.54533866 -29.06583803 32.40563398 -29.07713968 31.2313928 C-28.99565471 21.14934492 -26.14162407 14.23838642 -19.28271484 6.88330078 C-13.81262233 1.63597222 -7.44066349 -0.02940974 0 0 Z " fill="#FCFCFC" transform="translate(82.55615234375,53.77294921875)"/>
<path d="M0 0 C1.11375 0.433125 2.2275 0.86625 3.375 1.3125 C5.49152637 0.03770185 5.49152637 0.03770185 7.375 -1.6875 C11.5237778 -2.29095859 13.55065363 -2.23913591 17.06274414 0.11108398 C20.53221779 4.91471697 20.03636841 9.25203476 19.93359375 15.03515625 C19.93009666 16.74160561 19.93009666 16.74160561 19.92652893 18.48252869 C19.91679771 20.88401808 19.89502532 23.28548472 19.86206055 25.68676758 C19.81263315 29.36509124 19.80057789 33.04207727 19.79492188 36.72070312 C19.78083637 39.05470175 19.76463215 41.38868875 19.74609375 43.72265625 C19.74073105 44.82376236 19.73536835 45.92486847 19.72984314 47.05934143 C19.71385574 48.08397995 19.69786835 49.10861847 19.68139648 50.16430664 C19.66543678 51.51402306 19.66543678 51.51402306 19.64915466 52.89100647 C19.35584355 55.48170089 18.74416864 57.10675666 17.375 59.3125 C14.1550434 61.612469 11.25218692 61.71637364 7.375 61.3125 C6.776875 60.755625 6.17875 60.19875 5.5625 59.625 C4.840625 59.191875 4.11875 58.75875 3.375 58.3125 C1.50071133 58.76607563 1.50071133 58.76607563 -0.5625 59.625 C-8.10286403 62.47744034 -16.25929012 62.47740626 -23.875 59.8125 C-33.15788862 55.49557944 -39.00757868 48.80823096 -42.625 39.3125 C-45.06003246 31.48897636 -44.33596099 23.00549533 -40.94140625 15.625 C-36.41218335 7.6686203 -29.48638769 1.66619848 -20.74609375 -1.33203125 C-13.99370216 -2.46364752 -6.34164445 -2.78793049 0 0 Z " fill="#030303" transform="translate(260.625,173.6875)"/>
<path d="M0 0 C1.15745728 -0.00478363 2.31491455 -0.00956726 3.50744629 -0.01449585 C5.95175538 -0.0178945 8.39610995 -0.00869475 10.84033203 0.01220703 C14.58078408 0.03896973 18.31823499 0.01245445 22.05859375 -0.01953125 C24.43490245 -0.01622715 26.81120929 -0.00982092 29.1875 0 C30.86422791 -0.01518173 30.86422791 -0.01518173 32.5748291 -0.03067017 C40.26824925 0.08540907 40.26824925 0.08540907 44.33178711 2.93383789 C46.70334246 6.60864785 46.50846039 8.23026392 45.77001953 12.37939453 C44.66629192 16.10816095 42.77930411 18.96074622 40.53125 22.1015625 C39.52901568 23.5731185 38.53056914 25.04725869 37.53515625 26.5234375 C36.98746582 27.33103516 36.43977539 28.13863281 35.87548828 28.97070312 C32.80014316 33.61953944 29.91322168 38.38409415 27.01126099 43.14242554 C21.16168843 52.7324642 15.2281993 62.25396373 9.09375 71.6640625 C10.03694092 71.66293457 10.98013184 71.66180664 11.9519043 71.66064453 C15.46588058 71.67059485 18.97750734 71.70721717 22.4909668 71.76171875 C24.00878074 71.77983997 25.52675916 71.78745424 27.04467773 71.78417969 C29.23289239 71.78131084 31.41772434 71.8167327 33.60546875 71.859375 C34.91990967 71.86984863 36.23435059 71.88032227 37.58862305 71.89111328 C42.41182835 72.95472462 43.41351778 74.59132509 46.09375 78.6640625 C46.82865789 82.66522767 46.48189018 84.08185224 44.21875 87.4765625 C41.97637569 89.784889 41.09004078 90.59375971 37.9127655 90.81796265 C37.00851334 90.83082306 36.10426117 90.84368347 35.17260742 90.85693359 C33.63542305 90.88102798 33.63542305 90.88102798 32.06718445 90.90560913 C27.37837335 90.95000693 22.68970448 90.99112158 18.00073242 91.01416016 C15.52635294 91.0307264 13.05202143 91.05802482 10.57788086 91.09619141 C7.01390711 91.15090101 3.45105563 91.17282593 -0.11328125 91.1875 C-1.21863724 91.21016937 -2.32399323 91.23283875 -3.46284485 91.25619507 C-11.1158815 91.23510586 -11.1158815 91.23510586 -15.09814453 88.35791016 C-17.03126148 85.47781127 -17.72532326 83.43792631 -17.48486328 79.94921875 C-16.22558175 74.9758537 -13.16032049 70.88304463 -10.34375 66.6640625 C-8.96691989 64.5354977 -7.59063386 62.40658089 -6.21484375 60.27734375 C-5.50312012 59.1888916 -4.79139648 58.10043945 -4.05810547 56.97900391 C-0.59889761 51.65008124 2.74259681 46.2488218 6.09375 40.8515625 C10.72084014 33.43025141 15.38750795 26.03544656 20.09375 18.6640625 C18.7322583 18.70333862 18.7322583 18.70333862 17.34326172 18.7434082 C13.9549149 18.82895064 10.56772554 18.89146202 7.17871094 18.9387207 C5.71596093 18.96376779 4.25333488 18.99781642 2.79101562 19.04125977 C0.68067781 19.10235606 -1.42799752 19.13036685 -3.5390625 19.15234375 C-5.44002686 19.19161987 -5.44002686 19.19161987 -7.37939453 19.23168945 C-12.03466374 18.48245085 -13.61068921 16.97392882 -16.90625 13.6640625 C-17.66796875 11.6015625 -17.66796875 11.6015625 -17.59375 9.6640625 C-17.59761719 9.0246875 -17.60148438 8.3853125 -17.60546875 7.7265625 C-14.72234412 -0.77784982 -7.68056506 -0.06954276 0 0 Z " fill="#030303" transform="translate(170.90625,144.3359375)"/>
<path d="M0 0 C8.47117282 5.05875691 12.57694503 11.42518649 16.5234375 20.2578125 C18.66659351 29.80459838 16.53985684 37.62829814 12.2109375 46.3203125 C7.31656013 53.2306117 -0.43728827 58.54089669 -8.7890625 60.3203125 C-19.20430189 61.83627726 -27.2957938 59.11747458 -35.7890625 53.3203125 C-38.7109802 50.57948517 -40.81606489 47.79741632 -42.7890625 44.3203125 C-43.14484375 43.71832031 -43.500625 43.11632812 -43.8671875 42.49609375 C-47.28999527 35.32375564 -46.8718758 25.93297482 -45.09765625 18.375 C-41.45581955 8.40947195 -34.84267118 2.73915344 -25.4921875 -1.79296875 C-17.53549246 -4.40304068 -7.51177365 -3.56871638 0 0 Z " fill="#050505" transform="translate(362.7890625,174.6796875)"/>
<path d="M0 0 C0.9590625 0.03673828 0.9590625 0.03673828 1.9375 0.07421875 C2.576875 0.07035156 3.21625 0.06648437 3.875 0.0625 C7.23060194 1.2000999 8.73046004 3.01528791 10.9375 5.76171875 C11.65282975 8.65720085 11.60150103 11.46507961 11.55273438 14.43579102 C11.55828339 15.29816376 11.5638324 16.1605365 11.56954956 17.04904175 C11.58133711 19.89263904 11.5570821 22.73463977 11.53125 25.578125 C11.52953874 27.55679756 11.52960473 29.53547239 11.53137207 31.5141449 C11.52971939 35.65768164 11.51102918 39.80067698 11.47949219 43.9440918 C11.43978894 49.25618284 11.43545027 54.56756568 11.44295502 59.87977695 C11.44602368 63.96415194 11.4339083 68.04836759 11.41682434 72.13270378 C11.409792 74.09152159 11.40667009 76.05035745 11.40751648 78.0091877 C11.40571967 80.74547128 11.38434876 83.48090441 11.35742188 86.21704102 C11.36035248 87.02702042 11.36328308 87.83699982 11.36630249 88.67152405 C11.31620786 91.96914666 11.1725965 94.34282397 9.54162598 97.24888611 C6.96751005 99.67650505 4.58320735 99.6885736 1.1640625 99.93359375 C-2.24309459 99.67058513 -3.84035927 98.26162707 -6.0625 95.76171875 C-7.30964877 92.02027244 -7.23418523 88.52062568 -7.25537109 84.62182617 C-7.26763733 83.37741508 -7.26763733 83.37741508 -7.28015137 82.10786438 C-7.30497462 79.3609794 -7.32151282 76.61414596 -7.3359375 73.8671875 C-7.34126118 72.92862726 -7.34658485 71.99006702 -7.35206985 71.02306557 C-7.3787871 66.05599408 -7.39816724 61.08894761 -7.41259766 56.12182617 C-7.42594289 52.01189955 -7.45380823 47.90246872 -7.49462891 43.79272461 C-7.54393104 38.82901758 -7.56871558 33.86576066 -7.57582474 28.90181923 C-7.5825387 27.0115804 -7.59776456 25.12135167 -7.62171555 23.23125267 C-7.65335444 20.58356795 -7.65340621 17.93761924 -7.64599609 15.28979492 C-7.6706041 14.12297684 -7.6706041 14.12297684 -7.69570923 12.93258667 C-7.64964268 8.90363183 -7.21836309 6.46556655 -4.65493774 3.27632141 C-2.0625 0.76171875 -2.0625 0.76171875 0 0 Z " fill="#040404" transform="translate(296.0625,135.23828125)"/>
<path d="M0 0 C3.39366345 2.31386145 4.93764821 4.18059058 6.75 7.875 C7.55851635 14.24206622 6.58189904 17.73218813 2.75 22.875 C-1.57631075 25.85534741 -5.05099306 26.44216439 -10.25 25.875 C-14.76799017 23.9387185 -17.55782818 20.95171733 -20.25 16.875 C-21.15900738 10.51194836 -20.00105413 7.04537191 -16.25 1.875 C-11.33877716 -2.35410855 -5.80608055 -2.00979711 0 0 Z " fill="#F8F8F8" transform="translate(255.25,191.125)"/>
<path d="M0 0 C3.24394395 2.09054166 4.93384184 3.41646409 6.8125 6.8125 C7.48158719 11.375825 7.37369217 15.37834224 5.6875 19.6875 C2.86560818 22.88564407 0.15769008 25.34907921 -4.14453125 26.19921875 C-9.23103555 26.48126201 -12.26104173 25.19108037 -16.1875 21.8125 C-19.51961697 18.03610077 -19.81081052 14.19762447 -19.6796875 9.32421875 C-18.86119011 5.14728364 -16.46911205 2.42341762 -13.1875 -0.1875 C-8.48227445 -1.75590852 -4.66101184 -1.73645539 0 0 Z " fill="#FAFAFA" transform="translate(354.1875,191.1875)"/>
<path d="M0 0 C0.66 0 1.32 0 2 0 C2.33 0.99 2.66 1.98 3 3 C0.05162229 4.80178638 -2.89978679 6.47639094 -6 8 C-5.04956626 6.66102417 -4.08940853 5.32894573 -3.125 4 C-2.59132812 3.2575 -2.05765625 2.515 -1.5078125 1.75 C-1.01023438 1.1725 -0.51265625 0.595 0 0 Z " fill="#151515" transform="translate(137,331)"/>
</svg>
